<svg t="1719821677760" class="icon" viewBox="0 0 1024 1024" version="1.1" xmlns="http://www.w3.org/2000/svg" p-id="6212" width="26" height="26"><path d="M1011.87648 390.848L577.50848 49.344C540.77248 15.104 483.23648 15.104 448.61248 47.616L12.26048 390.848a32 32 0 0 0 39.552 50.304L64.03648 431.552V864C64.03648 952.256 135.84448 1024 224.03648 1024h576c88.256 0 160-71.744 160-160V431.552l12.16 9.6a32.192 32.192 0 0 0 44.992-5.376 32.064 32.064 0 0 0-5.312-44.928zM384.03648 960v-288C384.03648 619.072 427.10848 576 480.03648 576h64c52.928 0 96 43.072 96 96V960H384.03648z m512-576v480c0 52.928-43.072 96-96 96H704.03648v-288C704.03648 583.744 632.29248 512 544.03648 512h-64A160.192 160.192 0 0 0 320.03648 672V960H224.03648c-52.928 0-96-43.072-96-96V384c0-0.896-0.448-1.6-0.512-2.432l362.688-285.44c12.224-11.456 31.36-11.392 45.696 1.792l360.64 283.712C896.48448 382.464 896.03648 383.168 896.03648 384z" p-id="6213" fill="#eee"></path></svg>