<svg t="1719644033606" class="icon" viewBox="0 0 1280 1024" version="1.1" xmlns="http://www.w3.org/2000/svg" p-id="2353" xmlns:xlink="http://www.w3.org/1999/xlink" width="20" height="20"><path d="M1159.6 535.4c113-113 113-296 0-409-100-100-257.6-113-372.6-30.8l-3.2 2.2c-28.8 20.6-35.4 60.6-14.8 89.2s60.6 35.4 89.2 14.8l3.2-2.2c64.2-45.8 152-38.6 207.6 17.2 63 63 63 165 0 228L844.6 669.6c-63 63-165 63-228 0-55.8-55.8-63-143.6-17.2-207.6l2.2-3.2c20.6-28.8 13.8-68.8-14.8-89.2s-68.8-13.8-89.2 14.8l-2.2 3.2C413 502.4 426 660 526 760c113 113 296 113 409 0l224.6-224.6zM120.4 488.6c-113 113-113 296 0 409 100 100 257.6 113 372.6 30.8l3.2-2.2c28.8-20.6 35.4-60.6 14.8-89.2s-60.6-35.4-89.2-14.8l-3.2 2.2c-64.2 45.8-152 38.6-207.6-17.2C148 744 148 642 211 579l224.4-224.6c63-63 165-63 228 0 55.8 55.8 63 143.6 17.2 207.8l-2.2 3.2c-20.6 28.8-13.8 68.8 14.8 89.2s68.8 13.8 89.2-14.8l2.2-3.2C867 521.6 854 364 754 264c-113-113-296-113-409 0L120.4 488.6z" p-id="2354" fill="#eee"></path></svg>