<svg t="1719681105071" class="icon" viewBox="0 0 1024 1024" version="1.1" xmlns="http://www.w3.org/2000/svg" p-id="6909" width="100" height="100"><path d="M768.2048 839.68c-14.848 0-26.9312-10.9568-26.9312-24.4736s12.0832-24.4736 26.9312-24.4736c111.3088 0 201.8304-96.5632 201.8304-215.3472s-90.5216-215.3472-201.8304-215.3472c-10.752 0-21.9136 1.1264-34.2016 3.3792-10.1376 1.8432-20.6848-1.7408-26.8288-9.3184-47.2064-57.1392-114.9952-90.0096-185.9584-90.0096-107.2128 0-201.8304 72.9088-235.2128 181.4528-1.9456 6.4512-6.7584 11.8784-13.2096 14.9504-6.4512 3.1744-14.0288 3.7888-21.0944 1.6384-13.824-4.096-27.8528-6.2464-41.5744-6.2464-86.1184 0-156.0576 75.0592-156.0576 167.424 0 92.2624 70.0416 167.424 156.0576 167.424h311.1936c14.848 0 26.9312 10.9568 26.9312 24.4736S536.064 839.68 521.1136 839.68H210.0224C94.208 839.68 0 742.6048 0 623.3088s94.208-216.3712 210.0224-216.3712c10.6496 0 21.2992 0.8192 31.9488 2.56C287.8464 292.2496 397.312 215.04 521.1136 215.04c83.0464 0 161.8944 35.4304 218.8288 97.6896 9.728-1.2288 19.0464-1.7408 28.2624-1.7408C909.312 310.9888 1024 429.568 1024 575.3856S909.312 839.68 768.2048 839.68z" p-id="6910" fill="#eee"></path><path d="M663.2448 655.9744c-5.0176 0-10.1376-1.2288-14.6432-3.9936l-109.8752-64.8192-109.8752 64.8192c-12.4928 7.3728-29.184 4.096-37.2736-7.168-8.0896-11.3664-4.5056-26.5216 7.8848-33.8944l124.5184-73.5232c8.9088-5.2224 20.3776-5.2224 29.2864 0l124.6208 73.5232c12.4928 7.3728 16.0768 22.528 7.8848 33.8944-5.0176 7.168-13.7216 11.1616-22.528 11.1616z" p-id="6911" fill="#eee"></path><path d="M761.1392 839.68C623.616 839.68 511.6928 725.7088 511.6928 585.5232c0-13.5168 12.0832-24.4736 26.9312-24.4736s26.9312 10.9568 26.9312 24.4736c0 113.152 87.6544 205.1072 195.4816 205.1072 14.848 0 26.9312 10.9568 26.9312 24.4736S775.9872 839.68 761.1392 839.68z" p-id="6912" fill="#eee"></path></svg>